# xmcd CD database file
#
# Track frame offsets:
#	150
#	15840
#	30219
#	44769
#	61783
#	81600
#	98763
#	118918
#	138594
#	155787
#	172844
#	190314
#	205534
#	219686
#	235107
#	254030
#	271366
#	289805
#	319280
#	335692
#
# Disc length: 4698 seconds
#
# Revision: 0
# Processed by: cddbd v1.5.1PL2 Copyright (c) Steve Scherf et al.
# Submitted via: CDex 1.40Beta8
#
DISCID=2b125814
DTITLE=Various Artist - TMC HP200617
DYEAR=2006
DGENRE=Country
TTITLE0=Imogen Heap - Goodnight And Go 
TTITLE1=Panic! @ The Disco - Write Sins Not Tragedies, I
TTITLE2=Jeannie Ortega F. Papoose - Crowded 
TTITLE3=Nelly Furtado F. Timbaland - Promiscuous 
TTITLE4=Young Dro F. T.I - Shoulder Lean 
TTITLE5=Yummy Bingham - One More Chance
TTITLE6=Dog Pound F. Snoop - Cali Iz Active 
TTITLE7=Black Jak F. Project Pat - Ride and Swerve 
TTITLE8=Blaine Larsen - Don't Know What She Said, I
TTITLE9=Cross Canadian Ragweed - This Time Around
TTITLE10=Gary Nichols - Unbroken Ground
TTITLE11=Trace Adkins - Swing
TTITLE12=Stokes - You Only Live Once 
TTITLE13=Anti-Flag - Press Corpse, The 
TTITLE14=Dresden Dolls - Sing 
TTITLE15=Eyes Of Love - My Love Is U [Rmx]
TTITLE16=India.Arie - Am Not My Hair, I [Rmx]
TTITLE17=Depeche Mode - Suffer Well [Rmx]
TTITLE18=Mark Harris - Find Your Wings
TTITLE19=Third Day - Can Feel It, I
EXTD=YEAR: 2006 ID3G: 2
EXTT0=
EXTT1=
EXTT2=
EXTT3=
EXTT4=
EXTT5=
EXTT6=
EXTT7=
EXTT8=
EXTT9=
EXTT10=
EXTT11=
EXTT12=
EXTT13=
EXTT14=
EXTT15=
EXTT16=
EXTT17=
EXTT18=
EXTT19=
PLAYORDER=
